<svg width="135" height="136" viewBox="0 0 135 136" fill="none" xmlns="http://www.w3.org/2000/svg">
<path d="M67.3095 52.4218C67.3095 61.7222 59.7704 69.2607 50.4705 69.2607C59.7704 69.2607 67.3095 76.7992 67.3095 86.0997C67.3095 76.7992 74.8486 69.2607 84.1484 69.2607C74.8486 69.2607 67.3095 61.7222 67.3095 52.4218Z" fill="white"/>
<path d="M43.787 113.992L45.6679 114.996L44.9464 116.348L41.6195 114.572L46.2062 105.979L47.6522 106.751L43.787 113.992Z" fill="white"/>
<path d="M37.7075 106.274C35.6108 108.454 33.0166 108.807 31.2205 107.079C29.4244 105.352 29.6655 102.737 31.7622 100.557C33.8497 98.3859 36.3585 98.0071 38.2219 99.799C40.0852 101.591 39.795 104.103 37.7075 106.274ZM36.4973 105.11C38.0583 103.487 38.2827 101.947 37.1781 100.884C36.064 99.8129 34.5334 100.097 32.9724 101.72C31.3744 103.382 31.1501 104.923 32.2642 105.994C33.3688 107.056 34.8994 106.772 36.4973 105.11Z" fill="white"/>
<path d="M27.4015 94.9034C24.721 96.3052 22.1491 95.8155 20.9944 93.6074C19.8397 91.3992 20.8986 88.9958 23.5791 87.5941C26.2477 86.1985 28.7471 86.6358 29.9451 88.9267C31.143 91.2175 30.0701 93.5078 27.4015 94.9034ZM26.6234 93.4156C28.619 92.372 29.3209 90.9824 28.6107 89.6244C27.8944 88.2547 26.3527 88.0383 24.3571 89.0819C22.3143 90.1502 21.6124 91.5398 22.3287 92.9096C23.0389 94.2675 24.5806 94.4839 26.6234 93.4156Z" fill="white"/>
<path d="M17.9267 76.1076C19.4215 75.9262 20.595 76.8577 20.7731 78.3261C20.9512 79.7944 20.0346 80.9795 18.5398 81.1608C17.0582 81.3406 15.8715 80.4107 15.6934 78.9423C15.5153 77.474 16.4451 76.2873 17.9267 76.1076ZM14.9418 71.087L25.4892 77.2573L25.685 78.8712L15.1376 72.7009L14.9418 71.087ZM18.0824 77.3907C17.3151 77.4838 16.847 78.0507 16.9369 78.7915C17.0267 79.5323 17.6152 79.9575 18.3825 79.8644C19.1497 79.7714 19.6179 79.2045 19.5296 78.4769C19.4398 77.7361 18.8496 77.2976 18.0824 77.3907ZM22.0589 68.7873C23.5405 68.6076 24.7256 69.5243 24.9037 70.9926C25.0834 72.4742 24.1519 73.6476 22.6703 73.8274C21.1888 74.0071 20.0037 73.0904 19.824 71.6089C19.6458 70.1405 20.5773 68.9671 22.0589 68.7873ZM22.2146 70.0705C21.4473 70.1636 20.9792 70.7304 21.0674 71.458C21.1573 72.1988 21.7474 72.6373 22.5147 72.5442C23.2819 72.4511 23.7501 71.8843 23.6602 71.1435C23.572 70.4159 22.9818 69.9774 22.2146 70.0705Z" fill="white"/>
<path d="M20.4624 52.4494C18.8991 51.7673 18.377 49.9984 19.1977 48.1175C19.9864 46.31 21.4889 45.5989 23.1224 46.2535L22.4402 47.8168C21.6548 47.5177 20.9631 47.8701 20.5794 48.7495C20.1584 49.7143 20.3507 50.5397 21.0957 50.8648C21.7308 51.1419 22.2342 50.9545 22.7303 50.2841L23.6485 49.0128C24.6444 47.63 25.7511 47.2261 27.0824 47.807C28.7434 48.5317 29.2533 50.2953 28.3953 52.2617C27.5639 54.167 26.0066 54.9704 24.3907 54.3089L25.0728 52.7456C25.8354 53.0638 26.5537 52.6503 26.9907 51.6488C27.4437 50.6107 27.2796 49.754 26.5346 49.4289C25.9361 49.1678 25.4487 49.3185 24.9702 49.9821L24.0344 51.2603C23.0439 52.6308 21.8303 53.0463 20.4624 52.4494Z" fill="white"/>
<path d="M33.6662 42.9066L32.6436 44.1532L24.9786 37.8653L26.0013 36.6187L30.7094 40.481L30.1995 36.7535L31.4926 35.1772L31.923 38.7706L36.5482 39.3935L35.365 40.8358L32.1318 40.4069L32.296 41.7825L33.6662 42.9066Z" fill="white"/>
<path d="M36.2307 29.2107C35.7903 29.5562 35.173 29.4816 34.8357 29.0518C34.4985 28.6219 34.5813 28.015 35.0217 27.6696C35.441 27.3406 36.0502 27.4046 36.3874 27.8345C36.7246 28.2644 36.6501 28.8818 36.2307 29.2107ZM40.4684 35.9296L36.4054 30.7504L37.6845 29.747L41.7475 34.9262L40.4684 35.9296Z" fill="white"/>
<path d="M47.9246 31.0537L46.4979 31.8049L41.8789 23.0325L43.3056 22.2813L47.9246 31.0537Z" fill="white"/>
<path d="M55.4379 28.0492L53.895 28.5174L51.0165 19.0303L52.5594 18.5622L55.4379 28.0492Z" fill="white"/>
<path d="M64.6569 26.5917C62.7024 26.722 61.2382 25.3905 61.1027 23.3562C60.9654 21.2954 62.2135 19.7832 64.1414 19.6548C66.1092 19.5237 67.4467 20.7568 67.5831 22.8043L67.6159 23.2963L62.6707 23.6391C62.8674 24.7878 63.518 25.3321 64.595 25.2604C65.4858 25.201 66.0478 24.8164 66.1923 24.1791L67.6947 24.079C67.5112 25.5335 66.3721 26.4775 64.6569 26.5917ZM64.2433 20.9835C63.286 21.0473 62.7355 21.6048 62.6415 22.5993L65.9389 22.3797C65.8786 21.4755 65.2139 20.9189 64.2433 20.9835Z" fill="white"/>
<path d="M75.6509 27.2967C73.7868 26.9012 72.9171 25.2864 73.3402 23.292C73.7661 21.2845 75.2435 20.0996 77.1858 20.5116C78.0852 20.7025 78.8001 21.2492 79.0687 21.9737L79.9344 17.8936L81.5116 18.2283L79.454 27.9265L77.9941 27.6167L78.1027 26.5909C77.554 27.2509 76.6285 27.5041 75.6509 27.2967ZM76.3126 25.9114C77.4206 26.1465 78.3062 25.5034 78.5523 24.3433C78.7985 23.1832 78.253 22.2229 77.145 21.9878C76.037 21.7527 75.1849 22.4301 74.9416 23.5772C74.6982 24.7243 75.2046 25.6763 76.3126 25.9114Z" fill="white"/>
<path d="M97.095 28.0377C96.6419 27.7092 96.5439 27.0951 96.8645 26.6527C97.1852 26.2104 97.7915 26.1232 98.2446 26.4516C98.6762 26.7644 98.782 27.3678 98.4614 27.8101C98.1407 28.2525 97.5266 28.3505 97.095 28.0377ZM91.7994 33.9587L95.6627 28.6288L96.979 29.5828L93.1157 34.9127L91.7994 33.9587Z" fill="white"/>
<path d="M98.5134 39.7142L97.4469 38.4872L102.415 34.1688L103.403 35.3053L102.847 35.9653C103.621 35.84 104.437 36.1899 105.022 36.8637C106.106 38.1108 105.892 39.4276 104.604 40.5466L101.547 43.2041L100.48 41.9771L103.246 39.5731C104.081 38.8475 104.125 38.0855 103.574 37.4519C102.918 36.6976 101.993 36.6895 101.189 37.3889L98.5134 39.7142Z" fill="white"/>
<path d="M108.956 59.2059L108.187 55.7869L117.69 53.648L118.439 56.9761C119.071 59.7841 117.57 62.1571 114.736 62.795C111.941 63.424 109.576 61.962 108.956 59.2059ZM116.87 57.1653L116.53 55.6573L110.095 57.1057L110.455 58.7047C110.882 60.6027 112.365 61.4847 114.341 61.0399C116.356 60.5864 117.311 59.1284 116.87 57.1653Z" fill="white"/>
<path d="M109.798 72.1161C109.942 70.1625 111.464 68.898 113.497 69.0471C115.557 69.1982 116.881 70.6447 116.74 72.5718C116.595 74.5386 115.188 75.6914 113.141 75.5413L112.65 75.5052L112.999 70.5605C111.834 70.5953 111.204 71.1637 111.125 72.2402C111.06 73.1306 111.363 73.7407 111.974 73.9725L111.864 75.4743C110.449 75.0899 109.673 73.8305 109.798 72.1161ZM115.41 72.4876C115.48 71.5307 115.004 70.908 114.033 70.6764L113.791 73.9722C114.695 74.0385 115.338 73.4577 115.41 72.4876Z" fill="white"/>
<path d="M110.653 80.5942L110.152 82.0567C109.606 81.8837 109.128 82.1706 108.886 82.8766C108.64 83.5953 108.796 84.0853 109.25 84.2407C109.565 84.3486 109.848 84.2624 110.164 83.7508L110.813 82.7194C111.449 81.6836 112.164 81.3227 113.16 81.6636C114.383 82.0822 114.76 83.3663 114.269 84.8036C113.79 86.203 112.659 86.8723 111.444 86.4707L111.945 85.0082C112.479 85.1769 112.94 84.9404 113.143 84.3478C113.35 83.7427 113.193 83.2947 112.727 83.1351C112.374 83.0142 112.052 83.2139 111.745 83.7003L111.096 84.7317C110.498 85.6961 109.838 86.0616 108.88 85.7337C107.619 85.3021 107.204 83.963 107.731 82.4249C108.261 80.8742 109.43 80.1756 110.653 80.5942Z" fill="white"/>
<path d="M110.835 94.9001C111.122 94.4197 111.725 94.2679 112.194 94.5483C112.663 94.8287 112.803 95.4249 112.516 95.9053C112.243 96.3627 111.651 96.5214 111.182 96.241C110.713 95.9606 110.561 95.3576 110.835 94.9001ZM104.47 90.1475L110.12 93.5255L109.285 94.9208L103.635 91.5428L104.47 90.1475Z" fill="white"/>
<path d="M103.19 98.2889C104.572 99.6205 104.739 101.521 103.435 102.874C102.751 103.584 101.917 103.854 101.141 103.642L101.728 104.338L100.683 105.422L96.1835 101.085C94.6003 99.5597 94.5274 97.6574 96.0069 96.1222C97.32 94.7597 98.9941 94.578 100.399 95.6546L99.2712 96.8252C98.5832 96.3102 97.7655 96.429 97.072 97.1486C96.2952 97.9546 96.3044 98.9628 97.0912 99.721L97.878 100.479C97.7233 99.7564 98.0091 98.903 98.6656 98.2217C99.9602 96.8785 101.818 96.9666 103.19 98.2889ZM102.082 99.4968C101.285 98.7294 100.201 98.6646 99.4608 99.4322C98.684 100.238 98.7693 101.283 99.5945 102.078C100.4 102.855 101.429 102.902 102.215 102.086C102.964 101.309 102.859 100.246 102.082 99.4968Z" fill="white"/>
<path d="M90.0583 105.165L91.4701 104.359L94.734 110.076L93.4264 110.822L92.8878 110.148C92.8594 110.931 92.3567 111.663 91.5814 112.106C90.1465 112.925 88.8971 112.457 88.0514 110.976L86.0428 107.458L87.4546 106.652L89.2716 109.834C89.82 110.795 90.5587 110.987 91.2877 110.57C92.1557 110.075 92.3444 109.169 91.8158 108.243L90.0583 105.165Z" fill="white"/>
<circle cx="67.3047" cy="68.2609" r="66.7812" stroke="url(#paint0_radial_6_100)"/>
<defs>
<radialGradient id="paint0_radial_6_100" cx="0" cy="0" r="1" gradientUnits="userSpaceOnUse" gradientTransform="translate(67.3047 18.3968) rotate(90) scale(117.145)">
<stop stop-color="#AD13FB"/>
<stop offset="0.473958" stop-color="#3313FB"/>
<stop offset="1" stop-color="#AF11FF"/>
</radialGradient>
</defs>
</svg>
