<svg width="20" height="20" viewBox="0 0 20 20" fill="none" xmlns="http://www.w3.org/2000/svg">
<path d="M8.975 19.95C7.70834 19.8167 6.52934 19.4623 5.438 18.887C4.346 18.3123 3.4 17.5793 2.6 16.688C1.8 15.796 1.171 14.775 0.713001 13.625C0.254335 12.475 0.0250015 11.2583 0.0250015 9.975C0.0250015 7.39167 0.879335 5.154 2.588 3.262C4.296 1.37067 6.43334 0.283333 9 0V2C6.98334 2.28333 5.31667 3.179 4 4.687C2.68333 6.19567 2.025 7.95833 2.025 9.975C2.025 11.9917 2.68333 13.754 4 15.262C5.31667 16.7707 6.975 17.6667 8.975 17.95V19.95ZM9.975 15L4.95 9.95L6.375 8.525L8.975 11.125V5H10.975V11.125L13.55 8.55L14.975 10L9.975 15ZM10.975 19.95V17.95C11.6917 17.85 12.3793 17.6583 13.038 17.375C13.696 17.0917 14.3083 16.7333 14.875 16.3L16.325 17.75C15.5417 18.3667 14.7 18.8627 13.8 19.238C12.9 19.6127 11.9583 19.85 10.975 19.95ZM14.925 3.65C14.3417 3.21667 13.7207 2.85833 13.062 2.575C12.404 2.29167 11.7167 2.1 11 2V0C11.9833 0.1 12.925 0.337333 13.825 0.712C14.725 1.08733 15.5583 1.58333 16.325 2.2L14.925 3.65ZM17.725 16.3L16.325 14.875C16.7583 14.3083 17.1083 13.6957 17.375 13.037C17.6417 12.379 17.825 11.6917 17.925 10.975H19.975C19.8417 11.9583 19.5917 12.904 19.225 13.812C18.8583 14.7207 18.3583 15.55 17.725 16.3ZM17.925 8.975C17.825 8.25833 17.6417 7.57067 17.375 6.912C17.1083 6.254 16.7583 5.64167 16.325 5.075L17.725 3.65C18.3583 4.4 18.8667 5.229 19.25 6.137C19.6333 7.04567 19.875 7.99167 19.975 8.975H17.925Z" fill="#194BFD"/>
</svg>
