<svg width="55" height="55" viewBox="0 0 49 49" fill="none" xmlns="http://www.w3.org/2000/svg">
<mask id="mask0_6_161" style="mask-type:alpha" maskUnits="userSpaceOnUse" x="0" y="0" width="55" height="55">
<rect x="0.666672" y="0.159424" width="48" height="48" fill="#D9D9D9"/>
</mask>
<g mask="url(#mask0_6_161)">
<path d="M10.2643 37.5595C9.39766 37.5595 8.68099 37.2761 8.11433 36.7095C7.54766 36.1428 7.26433 35.4261 7.26433 34.5595V13.7595C7.26433 12.8928 7.54766 12.1761 8.11433 11.6095C8.68099 11.0428 9.39766 10.7595 10.2643 10.7595H30.0643C30.031 10.9928 30.0063 11.2175 29.9903 11.4335C29.973 11.6508 29.9643 11.8928 29.9643 12.1595H9.46433L24.6643 22.1595L31.7643 17.4595C31.931 17.6261 32.0897 17.8008 32.2403 17.9835C32.3897 18.1675 32.5477 18.3428 32.7143 18.5095L24.6643 23.8595L8.66433 13.2595V34.5595C8.66433 35.0261 8.81433 35.4095 9.11433 35.7095C9.41433 36.0095 9.79766 36.1595 10.2643 36.1595H39.0643C39.531 36.1595 39.9143 36.0095 40.2143 35.7095C40.5143 35.4095 40.6643 35.0261 40.6643 34.5595V20.6095C40.931 20.5428 41.173 20.4761 41.3903 20.4095C41.6063 20.3428 41.831 20.2595 42.0643 20.1595V34.5595C42.0643 35.4261 41.781 36.1428 41.2143 36.7095C40.6477 37.2761 39.931 37.5595 39.0643 37.5595H10.2643ZM38.6643 16.8595C37.3643 16.8595 36.2563 16.4008 35.3403 15.4835C34.423 14.5675 33.9643 13.4595 33.9643 12.1595C33.9643 10.8595 34.423 9.75081 35.3403 8.83347C36.2563 7.91747 37.3643 7.45947 38.6643 7.45947C39.9643 7.45947 41.073 7.91747 41.9903 8.83347C42.9063 9.75081 43.3643 10.8595 43.3643 12.1595C43.3643 13.4595 42.9063 14.5675 41.9903 15.4835C41.073 16.4008 39.9643 16.8595 38.6643 16.8595Z" fill="#B419FD"/>
</g>
</svg>
