<svg width="49" height="49" viewBox="0 0 49 49" fill="none" xmlns="http://www.w3.org/2000/svg">
<mask id="mask0_6_209" style="mask-type:alpha" maskUnits="userSpaceOnUse" x="0" y="0" width="49" height="49">
<rect x="0.333374" y="0.159424" width="48" height="48" fill="#D9D9D9"/>
</mask>
<g mask="url(#mask0_6_209)">
<path d="M5.23337 34.6596L4.08337 33.8096L12.4834 20.3596L18.4834 27.3596L26.3834 14.5596L30.0834 20.1596C29.8167 20.2263 29.5754 20.2843 29.3594 20.3336C29.142 20.3843 28.9167 20.443 28.6834 20.5096L26.4334 17.1596L18.7334 29.7096L12.6834 22.6596L5.23337 34.6596ZM43.4834 44.3096L36.4334 37.3596C35.8667 37.793 35.25 38.1263 34.5834 38.3596C33.9167 38.593 33.2167 38.7096 32.4834 38.7096C30.6834 38.7096 29.1667 38.093 27.9334 36.8596C26.7 35.6263 26.0834 34.1096 26.0834 32.3096C26.0834 30.5096 26.7 28.993 27.9334 27.7596C29.1667 26.5263 30.6834 25.9096 32.4834 25.9096C34.2834 25.9096 35.8 26.5263 37.0334 27.7596C38.2667 28.993 38.8834 30.5096 38.8834 32.3096C38.8834 33.0763 38.7587 33.8016 38.5094 34.4856C38.2587 35.1683 37.9 35.793 37.4334 36.3596L44.4834 43.3096L43.4834 44.3096ZM32.4834 37.3096C33.8834 37.3096 35.0667 36.8263 36.0334 35.8596C37 34.893 37.4834 33.7096 37.4834 32.3096C37.4834 30.9096 37 29.7263 36.0334 28.7596C35.0667 27.793 33.8834 27.3096 32.4834 27.3096C31.0834 27.3096 29.9 27.793 28.9334 28.7596C27.9667 29.7263 27.4834 30.9096 27.4834 32.3096C27.4834 33.7096 27.9667 34.893 28.9334 35.8596C29.9 36.8263 31.0834 37.3096 32.4834 37.3096ZM35.9334 20.4096C35.7 20.343 35.4747 20.2843 35.2574 20.2336C35.0414 20.1843 34.8167 20.143 34.5834 20.1096L43.4334 6.00964L44.5834 6.85964L35.9334 20.4096Z" fill="#7949FF"/>
</g>
</svg>
