<svg width="48" height="49" viewBox="0 0 48 49" fill="none" xmlns="http://www.w3.org/2000/svg">
<mask id="mask0_6_185" style="mask-type:alpha" maskUnits="userSpaceOnUse" x="0" y="0" width="48" height="49">
<rect y="0.159424" width="48" height="48" fill="#D9D9D9"/>
</mask>
<g mask="url(#mask0_6_185)">
<path d="M40.6897 21.8591V37.8591C40.6897 38.7258 40.4064 39.4424 39.8397 40.0091C39.2731 40.5758 38.5564 40.8591 37.6897 40.8591H10.2897C9.42308 40.8591 8.70641 40.5758 8.13974 40.0091C7.57308 39.4424 7.28974 38.7258 7.28974 37.8591V21.7591C6.42308 21.1591 5.79841 20.3678 5.41574 19.3851C5.03174 18.4011 5.02308 17.3591 5.38974 16.2591L7.28974 9.95911C7.55641 9.15911 7.97308 8.54244 8.53974 8.10911C9.10641 7.67577 9.82308 7.45911 10.6897 7.45911H37.1897C38.0564 7.45911 38.7731 7.65911 39.3397 8.05911C39.9064 8.45911 40.3231 9.05911 40.5897 9.85911L42.5897 16.2591C42.9564 17.3591 42.9484 18.4171 42.5657 19.4331C42.1817 20.4504 41.5564 21.2591 40.6897 21.8591ZM28.3897 21.4591C29.7897 21.4591 30.8317 21.0838 31.5157 20.3331C32.1984 19.5838 32.4897 18.8258 32.3897 18.0591L30.9897 8.85911H24.6897V17.5591C24.6897 18.6258 25.0564 19.5424 25.7897 20.3091C26.5231 21.0758 27.3897 21.4591 28.3897 21.4591ZM19.3897 21.4591C20.5564 21.4591 21.4984 21.0758 22.2157 20.3091C22.9317 19.5424 23.2897 18.6258 23.2897 17.5591V8.85911H16.9897L15.5897 18.2591C15.5231 18.8258 15.8231 19.5004 16.4897 20.2831C17.1564 21.0671 18.1231 21.4591 19.3897 21.4591ZM10.4897 21.4591C11.4564 21.4591 12.2731 21.1338 12.9397 20.4831C13.6064 19.8338 14.0231 19.0258 14.1897 18.0591L15.4897 8.85911H10.6897C10.1231 8.85911 9.67308 8.98377 9.33974 9.23311C9.00641 9.48377 8.75641 9.85911 8.58974 10.3591L6.78974 16.5591C6.42308 17.7258 6.57308 18.8338 7.23974 19.8831C7.90641 20.9338 8.98974 21.4591 10.4897 21.4591ZM37.4897 21.4591C38.7564 21.4591 39.7897 20.9671 40.5897 19.9831C41.3897 19.0004 41.5897 17.8591 41.1897 16.5591L39.2897 10.2591C39.1231 9.75911 38.8731 9.40044 38.5397 9.18311C38.2064 8.96711 37.7564 8.85911 37.1897 8.85911H32.4897L33.7897 18.0591C33.9564 19.0258 34.3731 19.8338 35.0397 20.4831C35.7064 21.1338 36.5231 21.4591 37.4897 21.4591ZM10.2897 39.4591H37.6897C38.1564 39.4591 38.5397 39.3091 38.8397 39.0091C39.1397 38.7091 39.2897 38.3258 39.2897 37.8591V22.5591C38.9897 22.6591 38.6897 22.7338 38.3897 22.7831C38.0897 22.8338 37.7897 22.8591 37.4897 22.8591C36.5897 22.8591 35.7977 22.6758 35.1137 22.3091C34.4311 21.9424 33.7897 21.3591 33.1897 20.5591C32.6897 21.2258 32.0564 21.7758 31.2897 22.2091C30.5231 22.6424 29.5564 22.8591 28.3897 22.8591C27.6231 22.8591 26.8897 22.6671 26.1897 22.2831C25.4897 21.9004 24.7564 21.3258 23.9897 20.5591C23.2897 21.3258 22.5231 21.9004 21.6897 22.2831C20.8564 22.6671 20.0897 22.8591 19.3897 22.8591C18.5897 22.8591 17.7897 22.7011 16.9897 22.3851C16.1897 22.0678 15.4897 21.4591 14.8897 20.5591C13.8231 21.6258 12.9151 22.2758 12.1657 22.5091C11.4151 22.7424 10.8564 22.8591 10.4897 22.8591C10.1897 22.8591 9.88974 22.8338 9.58974 22.7831C9.28974 22.7338 8.98974 22.6591 8.68974 22.5591V37.8591C8.68974 38.3258 8.83974 38.7091 9.13974 39.0091C9.43974 39.3091 9.82308 39.4591 10.2897 39.4591Z" fill="#19D4FD"/>
</g>
</svg>
